<?xml version="1.0" standalone="no"?>
<!DOCTYPE svg PUBLIC "-//W3C//DTD SVG 20010904//EN"
 "http://www.w3.org/TR/2001/REC-SVG-20010904/DTD/svg10.dtd">
<svg version="1.0" xmlns="http://www.w3.org/2000/svg"
 width="500.000000pt" height="500.000000pt" viewBox="0 0 500.000000 500.000000"
 preserveAspectRatio="xMidYMid meet">
<metadata>
Created by potrace 1.14, written by Peter Selinger 2001-2017
</metadata>
<g transform="translate(0.000000,500.000000) scale(0.100000,-0.100000)"
fill="#000000" stroke="none">
<path d="M2315 4994 c-16 -2 -73 -9 -125 -15 -433 -49 -871 -232 -1240 -517
-109 -85 -327 -303 -412 -412 -286 -370 -453 -770 -520 -1245 -7 -50 -13 -185
-13 -305 0 -352 54 -632 181 -945 127 -310 305 -577 549 -820 399 -400 878
-635 1460 -717 117 -17 493 -17 610 0 475 67 875 234 1245 520 109 85 327 303
412 412 286 370 453 770 520 1245 17 117 17 493 0 610 -67 475 -234 875 -520
1245 -85 109 -303 327 -412 412 -365 282 -765 451 -1230 518 -77 11 -451 22
-505 14z m1811 -1444 c283 -66 459 -253 476 -505 l3 -50 -237 -3 -238 -2 -6
27 c-22 99 -59 142 -146 168 -103 30 -223 8 -289 -55 -35 -33 -39 -42 -39 -88
0 -40 5 -57 26 -81 31 -37 144 -93 309 -152 147 -52 230 -89 309 -136 212
-127 306 -274 307 -476 0 -51 -5 -114 -11 -141 -40 -178 -193 -318 -415 -378
-68 -18 -108 -21 -265 -22 -174 -1 -191 1 -285 28 -156 44 -262 102 -346 188
l-37 38 -59 -57 c-104 -104 -244 -155 -473 -174 -70 -5 -342 -9 -615 -7 l-490
3 -17 50 c-10 28 -31 96 -48 153 l-32 102 -303 0 -304 0 -26 -87 c-14 -49 -36
-117 -48 -153 l-22 -65 -252 -3 c-207 -2 -253 0 -253 11 0 15 20 72 197 557
66 179 200 547 299 818 l179 492 230 -2 229 -3 66 -180 c118 -322 208 -567
274 -745 l65 -175 1 553 0 552 403 0 c513 -1 597 -11 773 -95 72 -35 103 -57
151 -108 l60 -65 39 50 c129 163 389 256 679 242 55 -3 136 -13 181 -24z"/>
<path d="M2325 3148 c-3 -7 -4 -95 -3 -193 l3 -180 165 0 c155 1 169 2 215 25
29 14 60 40 73 60 21 30 23 45 20 110 -4 91 -28 132 -97 163 -39 18 -70 22
-208 25 -132 3 -164 1 -168 -10z"/>
<path d="M1196 2939 c-3 -8 -26 -81 -51 -164 -25 -82 -61 -200 -80 -262 -19
-61 -35 -116 -35 -122 0 -8 55 -11 175 -11 96 0 175 4 175 9 0 14 -168 552
-174 558 -3 3 -8 0 -10 -8z"/>
<path d="M3191 2739 c-23 -27 -68 -64 -98 -81 l-55 -31 59 -27 c108 -49 175
-127 208 -242 l16 -58 133 0 133 0 11 -67 c23 -138 97 -195 265 -201 125 -5
176 8 222 59 30 34 35 46 35 90 0 59 -17 96 -61 133 -45 38 -84 56 -249 116
-303 110 -451 198 -550 327 l-25 33 -44 -51z"/>
<path d="M2324 2437 c-2 -7 -3 -94 -2 -192 l3 -180 180 0 c121 1 192 5 218 14
82 28 121 87 118 181 -2 93 -43 151 -125 175 -66 20 -384 22 -392 2z"/>
</g>
</svg>
